<?xml version="1.0" standalone="no"?>
<!DOCTYPE svg PUBLIC "-//W3C//DTD SVG 20010904//EN"
 "http://www.w3.org/TR/2001/REC-SVG-20010904/DTD/svg10.dtd">
<svg version="1.0" xmlns="http://www.w3.org/2000/svg"
 width="512.000000pt" height="512.000000pt" viewBox="0 0 512.000000 512.000000"
 preserveAspectRatio="xMidYMid meet">
<g transform="translate(0.000000,512.000000) scale(0.050000,-0.050000)"
fill="#e2c044" stroke="none">
<path d="M5064 10169 c-38 -27 -44 -50 -44 -161 l0 -130 -119 4 c-132 5 -181
-20 -181 -93 0 -75 71 -110 194 -96 l106 13 0 -211 0 -210 -85 -22 c-477 -121
-692 -830 -338 -1118 76 -62 -196 -24 -747 104 -1376 320 -2459 69 -3145 -727
-868 -1009 -876 -2323 -20 -3419 98 -125 175 -230 171 -233 -3 -3 -67 -10
-141 -15 -237 -17 -242 -44 -68 -386 l127 -251 -52 -27 c-174 -90 -248 -318
-164 -502 40 -89 170 -209 227 -209 31 0 35 -23 35 -230 0 -207 -4 -230 -35
-230 -109 0 -264 -218 -264 -370 0 -152 155 -370 264 -370 64 0 52 -451 -13
-468 -279 -70 -330 -486 -85 -681 l77 -61 4356 0 4356 0 77 61 c153 122 205
314 129 480 -40 89 -170 209 -227 209 -31 0 -35 23 -35 230 0 207 4 230 35
230 109 0 264 218 264 370 0 152 -155 370 -264 370 -31 0 -35 23 -35 230 0
207 4 230 35 230 57 0 187 120 227 209 84 184 10 412 -164 502 l-52 27 128
253 c170 334 156 388 -99 389 -142 0 -148 -23 61 245 841 1077 848 2367 17
3372 -690 834 -1779 1098 -3183 772 -551 -128 -823 -166 -747 -104 354 288
139 997 -338 1118 l-85 22 0 210 0 211 106 -13 c123 -14 194 21 194 96 0 73
-49 98 -181 93 l-119 -4 0 130 c0 123 -36 192 -100 192 -6 0 -31 -14 -56 -31z
m267 -1127 c479 -217 316 -942 -211 -942 -210 0 -361 97 -452 290 -192 405
250 840 663 652z m-2050 -890 c126 -16 387 -65 579 -109 370 -85 592 -123 709
-123 88 0 88 -4 2 -105 -38 -44 -85 -127 -103 -183 -18 -56 -35 -104 -37 -107
-8 -10 -451 76 -696 134 -1395 331 -2393 -6 -2873 -971 -368 -740 -269 -1469
300 -2222 251 -331 248 -310 60 -435 -174 -115 -140 -131 -364 169 -664 889
-790 1754 -380 2612 497 1041 1468 1505 2803 1340z m4929 -39 c1461 -394 2192
-2002 1528 -3363 -95 -196 -516 -794 -565 -805 -27 -6 -297 176 -307 206 -4
12 53 97 127 190 645 816 768 1569 384 2350 -473 959 -1481 1298 -2872 968
-245 -58 -688 -144 -696 -134 -2 3 -19 51 -37 107 -18 56 -65 139 -103 183
-86 101 -86 105 6 105 114 0 411 52 741 130 629 148 1381 174 1794 63z m-3441
-84 c45 -30 46 -34 15 -67 -40 -42 -77 -32 -41 11 20 25 16 27 -32 16 -52 -14
-54 -12 -32 28 27 51 29 52 90 12z m547 -180 c93 -39 195 -136 251 -239 l43
-80 5 -1806 6 -1807 -120 64 c-66 35 -173 112 -238 171 -146 132 -140 132
-286 0 -65 -59 -172 -136 -238 -171 l-119 -63 0 1786 0 1786 48 100 c116 246
403 361 648 259z m-1846 -336 c132 -28 339 -74 460 -102 121 -28 281 -57 355
-64 l135 -13 0 -226 0 -227 -1475 -5 -1475 -6 -115 -46 c-92 -38 -213 -117
-334 -218 -6 -5 3 -17 20 -28 21 -15 16 -17 -21 -7 -41 11 -45 9 -25 -13 29
-30 33 -58 7 -58 -25 0 -42 78 -20 91 10 7 85 99 166 205 541 713 1274 939
2322 717z m4591 17 c397 -102 750 -354 1036 -738 129 -173 130 -194 3 -94 -55
44 -152 100 -215 126 l-115 46 -1475 6 -1475 5 0 227 0 226 135 13 c74 7 234
36 355 64 573 133 698 153 1030 166 362 14 524 4 721 -47z m-3641 -2255 l0
-1415 -198 0 c-312 0 -535 87 -767 299 -137 125 -132 125 -282 -9 -413 -369
-987 -396 -1426 -68 -132 98 -617 737 -714 942 -338 707 -184 1376 367 1597
166 66 227 69 1675 69 l1345 0 0 -1415z m4375 1363 c317 -105 551 -400 581
-734 35 -379 -100 -861 -311 -1113 l-50 -59 88 -29 c113 -37 111 -31 45 -110
-106 -126 -180 -222 -246 -320 l-66 -96 -39 41 c-59 64 -102 51 -222 -64 -420
-404 -1065 -402 -1518 4 -139 125 -136 125 -272 1 -232 -212 -455 -299 -767
-299 l-198 0 0 1415 0 1415 1425 -5 c1381 -5 1429 -7 1550 -47z m-7166 -2716
c468 -353 1126 -353 1584 1 l105 80 106 -80 c469 -354 1166 -352 1594 5 47 40
93 72 102 72 9 0 55 -32 102 -72 428 -357 1125 -359 1594 -5 l106 80 105 -80
c459 -355 1116 -354 1587 2 l106 80 106 -80 c170 -129 425 -244 544 -245 96
-1 94 -26 -14 -236 l-105 -204 -4131 0 -4131 0 -105 204 c-108 210 -110 235
-14 236 117 1 393 126 550 249 110 85 86 86 209 -7z m7811 -919 c106 -79 100
-243 -13 -317 -57 -37 -8116 -70 -8466 -35 -283 29 -340 343 -70 387 223 36
8499 2 8549 -35z m-220 -766 c0 -208 -1 -213 -48 -225 -313 -78 -320 -654 -9
-723 l57 -12 0 -219 0 -218 -3872 0 c-4091 1 -3928 5 -3928 -91 0 -117 -273
-109 4029 -109 3811 1 3942 -1 3991 -37 118 -87 97 -259 -40 -328 -97 -48
-8433 -55 -8549 -7 -190 80 -167 320 37 374 133 35 132 33 132 349 l0 286 57
12 c311 69 304 645 -9 723 -47 12 -48 17 -48 225 l0 213 4100 0 4100 0 0 -213z
m-8152 -459 c73 -86 70 -183 -6 -260 -125 -124 -342 -40 -342 132 0 175 236
262 348 128z m8394 4 c124 -125 37 -322 -142 -322 -110 0 -200 84 -200 187 0
178 214 262 342 135z"/>
<path d="M5035 7215 c-91 -69 -69 -241 34 -266 130 -33 230 72 187 195 -32 90
-147 127 -221 71z"/>
<path d="M5038 6200 c-18 -11 -44 -45 -57 -77 -70 -168 185 -286 268 -125 71
137 -79 279 -211 202z"/>
<path d="M5019 5159 c-62 -54 -62 -172 1 -223 101 -82 242 -19 246 109 2 87
-62 155 -146 155 -30 0 -75 -18 -101 -41z"/>
<path d="M2779 2032 c-462 -121 -377 -772 100 -772 390 0 534 534 195 727
-110 63 -184 74 -295 45z m212 -225 c126 -82 93 -289 -55 -344 -163 -61 -319
110 -245 267 57 119 186 152 300 77z"/>
<path d="M7292 2036 c-192 -41 -318 -195 -316 -389 3 -395 524 -536 733 -199
180 290 -82 659 -417 588z m155 -204 c159 -66 163 -282 6 -359 -232 -114 -401
227 -173 350 83 44 84 44 167 9z"/>
<path d="M4650 2009 c-341 -180 -282 -667 89 -747 133 -28 629 -28 762 0 336
72 426 489 152 707 l-77 61 -433 5 c-365 5 -442 1 -493 -26z m914 -227 c104
-116 53 -277 -102 -324 -135 -40 -689 -15 -756 34 -74 55 -105 172 -65 245 61
109 133 125 516 119 l346 -6 61 -68z"/>
</g>
</svg>
